<svg xmlns="http://www.w3.org/2000/svg" viewBox="0 0 536.81 146.93"><defs><style>.cls-1,.cls-7,.cls-9{fill:none;stroke-miterlimit:2.61;}.cls-1{stroke:#f58220;stroke-width:1.5px;}.cls-2,.cls-4{fill:#bd1b21;}.cls-12,.cls-3,.cls-5,.cls-8{fill:#231f20;}.cls-11,.cls-4,.cls-6,.cls-8{fill-rule:evenodd;}.cls-5{font-size:20.36px;}.cls-12,.cls-5{font-family:Arial-BoldMT, Arial;font-weight:700;}.cls-10,.cls-6{fill:#fff;}.cls-7,.cls-9{stroke:#231f20;}.cls-7{stroke-width:1px;}.cls-9{stroke-width:0.5px;}.cls-11{fill:#f58220;}.cls-12{font-size:12.89px;}</style></defs><title>Asset 3</title><g id="Layer_2" data-name="Layer 2"><g id="Layer_1-2" data-name="Layer 1"><line class="cls-1" x1="535.29" y1="146.18" x2="145.6" y2="146.18"/><path class="cls-2" d="M145.6,47.64c0,9.38,6,22.12,18.6,22.12H165c1.43-.07,3.33-.21,5.15-.21,3.64,0,7.91.21,10.92.21,3.8,0,8.16-1.34,8.16-2.74a1.45,1.45,0,0,0-.24-.77c-1.19-1-3.41-2-3.41-4V48.62c0-3,1.67-4,3.41-5,.71-.36,1.26-1,1.26-1.33,0-.5-.87-1.13-3-1.13a37,37,0,0,1-6.81.49c-1.66,0-4.36-.28-6.33-.28-1.43,0-2.7.14-2.85.77,0,.15-.16.35-.16.5,0,2,4.11,2.24,4.11,5v8.61c0,1.52,0,2.5-1.66,3a30.49,30.49,0,0,1-6.09.91c-10.22,0-13.86-9-13.86-17C154.15,31.51,158.11,28,169,27c2.22,0,5.62,0,5.62,1.94s-2.3,2.53-4.51,4-12.59,5.17-12.59,9.14c0,2,1.66,3.51,4.12,3.51s3.8-1.4,3.8-2.88a3.15,3.15,0,0,0-.48-1.61c0-.14-.24-.49-.24-.63,0-2.64,8.24-5.23,14-8,2.29-1,6.8-2.53,6.8-6,0-3.15-7.12-3.57-11.87-3.57h-3c-19.95,0-25.09,11.61-25.09,24.73"/><path class="cls-2" d="M196.74,63.29c0,1.54-1.67,2-2.85,2.52a1.83,1.83,0,0,0-.8,1.42,1.92,1.92,0,0,0,1.35,1.61,8.66,8.66,0,0,0,3.4.64c1.19,0,2.62-.15,4-.15s2.85.15,4.12.15a10.72,10.72,0,0,0,2.14-.15c1.58-.21,2.84-1.33,2.84-2.24a1.59,1.59,0,0,0-1-1.28c-2.38-1-2.93-1-3.49-3V44.61c1.11,0,3.8-1.26,5.62-1.26a1.72,1.72,0,0,1,1.9,1.26V45c0,1.54-1.9,3.93-1.9,5.26,0,1.07,1,1.77,3.57,1.91-.16-.14-.4-.21-.4-.35,0-.49,2-.91,3.8-1.63,3.4-1.54,4.51-5.54,4.51-7.57,0-4-1.66-7.14-6.81-7.14-4,0-8.62,5.67-10.29,5.67,0-1.54,1.67-2,2.85-3a2.22,2.22,0,0,0,.64-1.12c0-.49-.64-1-2.38-1H195.63c-2,0-2.69.63-2.69,1.12s.71,1.26,1.5,1.54c1.74.49,2.3,1.47,2.3,3.5Z"/><path class="cls-2" d="M253.41,59.24c-2.85,0-6.8,1.54-9.1,1.54-5.22-.56-6.33-2.52-6.33-5.53,0-3.64,7.52-6.65,11.48-8.12,1.66-.63,2.37-1.75,2.37-2.8s-1.11-2.24-3.4-2.24h-.72c-1.82,0-4.82.49-6.8.49a5.07,5.07,0,0,1-2.38-.49c-.47-.35-.87-.77-.87-1,0-1.26,4.43-2,7.2-2,6.26,0,8.55,2,8.55,6.51Zm-26.2.49c0,5.19,4.12,9.67,11.16,9.67.32,0,1-.14,1.27-.14,3.56,0,6.41-.49,8.63-.49s6.25.49,9.66.49c5.54,0,8.23-1.12,8.23-2.38,0-.77-1.19-1.89-3-2.59V46.57c0-8-4.12-10.64-8.63-10.64-2.29.14-4.35.28-6.25.28-3.64,0-7.05-.28-10.85-.28-1.18,0-8.55.56-8.55,4.69S233,45.73,237,45.73a32.28,32.28,0,0,0,5.7-.63h.95c.87,0,1.42.35,1.42.63s-.39.77-1.26.84C235.13,49.09,227.21,52.59,227.21,59.73Z"/><path class="cls-2" d="M273.68,75.33c0,1-1.11,1-2.85,2a1.87,1.87,0,0,0-1.11,1.34c0,.63.87,1.4,1.66,1.68a7.78,7.78,0,0,0,3.57.7c1.42,0,3-.21,3.8-.21,1.18,0,2.61.14,4,.14a12.21,12.21,0,0,0,2.22-.14c1.42-.28,2.45-1.4,2.45-2.17,0-.5-.47-1-1.34-1.34-1.11-.5-2.77-1.06-2.77-2v-8a5.1,5.1,0,0,1-2-4.13,6.88,6.88,0,0,1,2-4.89V44.18a15.53,15.53,0,0,1,9.18-3.49c4,0,8.47,2.93,8.47,9.49,0,5.58-2.22,10-7.92,10.6-2.85,0-2.85-.56-3.4-2-1.11-2.52-3.56-3-5.78-3a3.38,3.38,0,0,1,.4,1.47c0,1.82-2.14,3.55-2.14,5,0,4.48,3.4,7.5,10.37,7.5h.71c8.08,0,15.28-7.85,15.28-17.62-.56-11.45-6.33-16.7-14.33-16.7-6.17,0-9.18,4.2-11.4,5.25,0-1,1.11-2,2.22-2.52a.88.88,0,0,0,.55-.91c0-.49-.55-1.33-2.21-1.33H273.12c-2.13,0-3.24,1-3.24,1.61a1.58,1.58,0,0,0,.95,1.12c1.74,1,2.85,1,2.85,2.52Z"/><path class="cls-2" d="M316.9,64.29c-2.22,1.47-4,2-4,3.5,0,1,1.74,2,2.85,2,.4,0,.87.14,1.11.14,1.27,0,2.3-.64,4.51-.64s3.56.64,4.67.64c.32,0,.71-.14,1-.14,1.66-.5,3.56-1.48,3.56-2.46,0-1.54-3.56-1.54-4.11-3.57V43.07c2.85,0,4.67-1,8.07-1.47a4.76,4.76,0,0,1,4.51,5V64.29c-1.1,1.47-3.95,1.47-3.95,3.5,0,1,1.66,2,4.51,2,1.74,0,2.85-.5,4-.5,1.42,0,2.85.14,4.27.14a18.38,18.38,0,0,0,2.69-.14c1.43-.14,2.14-.84,2.14-1.47,0-.91-1.27-2.24-3.88-3V43.07c0-5.46-5.78-7.14-9.74-7.14-6.25,0-9,3.15-12.58,4.13V28c2-.49,4.27-1.89,4.27-2.73,0-.63-1-1.26-3.72-1.26H315.79c-2.53,0-3.56.7-3.56,1.33a1.41,1.41,0,0,0,1.27,1.12c1.18.56,2.29,1.05,3.4,1.54Z"/><path class="cls-2" d="M360.6,64.34a8.81,8.81,0,0,1-2.85,2c-.56.28-.95.77-.95,1.05,0,.7,1.5,1.75,2.69,2a7.42,7.42,0,0,0,1.82.15c1.27,0,3-.15,4.35-.15s2.85.15,4.12.15a11.12,11.12,0,0,0,2.14-.15c1.58-.21,2.85-1.12,2.85-1.89,0-.35-.32-.84-1-1.12-1.27-1-3.49-1.47-3.49-2.54V40.07c2.93-.63,4.36-1.75,4.36-2.45s-1.59-1.68-3.8-1.68H358.93c-1.58,0-2.61.77-2.61,1.4,0,.91,1.74,2.24,4.28,2.73ZM360,28.44c0,2.52,2.85,3,5.62,3s5.15-1,5.15-3c0-3-3.41-3-5.15-3C361.15,25.43,360,26.41,360,28.44Z"/><path class="cls-2" d="M378.09,54.27c0,5,2.22,13.52,10.21,15.49.4,0,1.11.14,1.67.14,2.53,0,5.77-.64,7.52-.64,2.21,0,3.95.5,6.25.5,7.91,0,10.29-5,10.29-8s-1.82-4.56-4.67-6c-.56,2.52-3.4,5-9.66,5-6.65,0-13.85-2.31-13.85-8.82,0-.07.16-.63.16-.84,0-6,2.29-12.53,10.37-12.53,2.53,0,5.62,1.4,5.62,2.73v.28a1.37,1.37,0,0,1-1.43.84c-.71,0-1.82-.35-3.08-.35A2.84,2.84,0,0,0,395,44.61a2.41,2.41,0,0,0,1.43,2c.23-.63.63-.84.95-.84,1,0,2.13,2.87,6.41,2.87a6,6,0,0,0,6.17-6c0-7.14-9.58-7.63-12.42-7.63-17.74.49-19.4,13.65-19.4,19.32"/><path class="cls-3" d="M425.27,60.22c-.4,3.79-8.07,4.7-8.07,6.45l.15.07c.72,2.17,5.7,2.66,10.45,2.66,2.69,0,5.86-.14,7.84-.14,4,0,8.79.43,13,.43,6.41,0,11.8-1.06,12-6.45,0-3.51-1.66-5-3.95-5.47-1.11,3-5.23,3-8.63,3-.71,0-2,.07-2.93.07-4.67,0-10.77-.49-10.77-4.13V47.13c-2.13-1.54-3.32-3.29-3.32-4.76,0-2,1.74-4.13,3.88-5.87V29c.71-1.94,3.48-2.5,5.78-2.5S447,27,447,29s-7.92,5.5-10.77,8c-1.82,1.6-3.56,3.07-3.56,5.1s1.74,4.48,5.78,4.48a15,15,0,0,0,6.81-1.47,6.72,6.72,0,0,1,2.14-.49,2.23,2.23,0,0,1,2.45,2c2.22-.49,2.77-2.45,2.77-4-.55-3.36-3.48-4.48-6.33-4.48a17.3,17.3,0,0,0-6.65,1.47,10.13,10.13,0,0,1-1.27.42.57.57,0,0,1-.55-.42c0-.35.63-1.26,2.37-2C443.56,35.94,459,30,459,26c0-2-1.74-3.08-9.18-3.08H428.67c-4.51,0-10.76,1.12-10.76,3.08.55,3,7.36,2.5,7.36,6Z"/><path class="cls-3" d="M467.38,63.29c0,1.54-1.66,2-2.85,2.52a1.85,1.85,0,0,0-.79,1.42,1.92,1.92,0,0,0,1.35,1.61,8.59,8.59,0,0,0,3.4.64c1.19,0,2.61-.15,4-.15s2.85.15,4.12.15a10.57,10.57,0,0,0,2.13-.15c1.59-.21,2.85-1.33,2.85-2.24a1.58,1.58,0,0,0-1-1.28c-2.37-1-2.92-1-3.48-3V44.61c1.11,0,3.8-1.26,5.62-1.26a1.72,1.72,0,0,1,1.9,1.26V45c0,1.54-1.9,3.93-1.9,5.26,0,1.07,1,1.77,3.56,1.91-.15-.14-.39-.21-.39-.35,0-.49,2-.91,3.8-1.63,3.4-1.54,4.51-5.54,4.51-7.57,0-4-1.66-7.14-6.81-7.14-4,0-8.63,5.67-10.29,5.67,0-1.54,1.66-2,2.85-3a2.18,2.18,0,0,0,.63-1.12c0-.49-.63-1-2.37-1H466.27c-2,0-2.69.63-2.69,1.12s.72,1.26,1.51,1.54c1.74.49,2.29,1.47,2.29,3.5Z"/><path class="cls-3" d="M524.06,59.24c-2.85,0-6.81,1.54-9.1,1.54-5.23-.56-6.33-2.52-6.33-5.53,0-3.64,7.52-6.65,11.47-8.12,1.67-.63,2.38-1.75,2.38-2.8s-1.11-2.24-3.4-2.24h-.72c-1.82,0-4.83.49-6.81.49a5,5,0,0,1-2.37-.49c-.47-.35-.87-.77-.87-1,0-1.26,4.43-2,7.2-2,6.26,0,8.55,2,8.55,6.51Zm-26.2.49c0,5.19,4.12,9.67,11.16,9.67.32,0,1-.14,1.27-.14,3.56,0,6.41-.49,8.63-.49s6.25.49,9.65.49c5.55,0,8.24-1.12,8.24-2.38,0-.77-1.19-1.89-3-2.59V46.57c0-8-4.12-10.64-8.63-10.64-2.3.14-4.35.28-6.25.28-3.64,0-7-.28-10.85-.28-1.19,0-8.55.56-8.55,4.69s4.12,5.11,8.08,5.11a32.28,32.28,0,0,0,5.7-.63h1c.87,0,1.42.35,1.42.63s-.39.77-1.27.84C505.78,49.09,497.86,52.59,497.86,59.73Z"/><path class="cls-4" d="M529.46,112.14l-1.89-5-1.84,5Zm5,5.4h-3l-1.18-3.1h-5.46l-1.13,3.1h-2.92l5.29-13.62H529Zm-21.59-5.76a2.55,2.55,0,0,0-.58-1.73,1.8,1.8,0,0,0-1.35-.59,1.82,1.82,0,0,0-1.41.62,2.48,2.48,0,0,0-.55,1.7Zm-.15,2.64,2.61.44a4.34,4.34,0,0,1-1.58,2.18,4.68,4.68,0,0,1-2.71.75,4.41,4.41,0,0,1-3.81-1.68,5.69,5.69,0,0,1-1-3.41,5.45,5.45,0,0,1,1.29-3.85,4.22,4.22,0,0,1,3.23-1.39,4.39,4.39,0,0,1,3.48,1.46,6.46,6.46,0,0,1,1.21,4.46H509a2.6,2.6,0,0,0,.63,1.81,2,2,0,0,0,1.49.64,1.61,1.61,0,0,0,1-.33A2,2,0,0,0,512.76,114.42Zm-15.23-2a4.57,4.57,0,0,0,.43,2.29,2,2,0,0,0,1.77,1,1.89,1.89,0,0,0,1.52-.77,3.52,3.52,0,0,0,.64-2.3,3.89,3.89,0,0,0-.62-2.46,1.93,1.93,0,0,0-1.56-.75,2,2,0,0,0-1.56.74A3.42,3.42,0,0,0,497.53,112.42Zm7,5.12h-2.42v-1.45a4.09,4.09,0,0,1-1.42,1.28,3.66,3.66,0,0,1-1.67.42,3.79,3.79,0,0,1-2.92-1.37,5.59,5.59,0,0,1-1.21-3.83,5.5,5.5,0,0,1,1.18-3.82,3.86,3.86,0,0,1,3-1.31,3.72,3.72,0,0,1,2.87,1.38v-4.92h2.6Zm-14.19-4.71c-.33.11-.86.24-1.59.4a4.65,4.65,0,0,0-1.42.45,1.09,1.09,0,0,0-.51.92,1.29,1.29,0,0,0,.41,1,1.45,1.45,0,0,0,1,.4,2.23,2.23,0,0,0,1.34-.47,1.61,1.61,0,0,0,.63-.86,5.63,5.63,0,0,0,.1-1.27Zm-3.5-2.12-2.36-.41a3.72,3.72,0,0,1,1.38-2.14,4.91,4.91,0,0,1,2.89-.7,6.38,6.38,0,0,1,2.61.41,2.67,2.67,0,0,1,1.2,1,5.46,5.46,0,0,1,.35,2.34l0,3a11,11,0,0,0,.12,1.92,5.41,5.41,0,0,0,.47,1.32h-2.59c-.07-.17-.15-.42-.25-.76q-.06-.23-.09-.3a4.69,4.69,0,0,1-1.43,1,4,4,0,0,1-1.62.33,3.34,3.34,0,0,1-2.39-.83,2.72,2.72,0,0,1-.88-2.09,2.89,2.89,0,0,1,.4-1.49,2.65,2.65,0,0,1,1.12-1,9.12,9.12,0,0,1,2.08-.61,13.44,13.44,0,0,0,2.53-.64v-.26a1.42,1.42,0,0,0-.37-1.09,2.28,2.28,0,0,0-1.41-.32,1.81,1.81,0,0,0-1.09.28A1.91,1.91,0,0,0,486.8,110.71ZM480,117.54h-2.61v-9.87h2.42v1.4a4.13,4.13,0,0,1,1.12-1.3,2.06,2.06,0,0,1,1.13-.31,3.38,3.38,0,0,1,1.72.49l-.81,2.28a2.34,2.34,0,0,0-1.22-.43,1.44,1.44,0,0,0-.93.3,2,2,0,0,0-.6,1.09,15.21,15.21,0,0,0-.22,3.31Zm-10.94-5v-2.3h5.92v5.43a7.31,7.31,0,0,1-2.5,1.48,9,9,0,0,1-3.32.64,7.42,7.42,0,0,1-3.72-.9,5.72,5.72,0,0,1-2.39-2.57,8.32,8.32,0,0,1-.8-3.63,7.81,7.81,0,0,1,.9-3.79,6,6,0,0,1,2.6-2.54,7,7,0,0,1,3.26-.68,6.53,6.53,0,0,1,4,1.06,4.89,4.89,0,0,1,1.83,3l-2.74.51a2.9,2.9,0,0,0-1.08-1.58,3.25,3.25,0,0,0-2-.58,3.72,3.72,0,0,0-2.86,1.14,4.83,4.83,0,0,0-1.06,3.4,5.38,5.38,0,0,0,1.07,3.64,3.59,3.59,0,0,0,2.82,1.21,4.59,4.59,0,0,0,1.73-.34,5.71,5.71,0,0,0,1.49-.82v-1.73Zm-20.68-8.62v5a3.86,3.86,0,0,1,3-1.51,3.79,3.79,0,0,1,1.64.34,2.58,2.58,0,0,1,1.09.85,3.05,3.05,0,0,1,.51,1.15,10.21,10.21,0,0,1,.14,2v5.78h-2.61v-5.2a7.63,7.63,0,0,0-.15-2,1.28,1.28,0,0,0-.53-.66,1.69,1.69,0,0,0-1-.25,2.15,2.15,0,0,0-1.17.32,1.81,1.81,0,0,0-.75,1,5.57,5.57,0,0,0-.24,1.87v4.94h-2.61V103.92Zm-4.4,3.75v2.08h-1.79v4a8.57,8.57,0,0,0,.06,1.42.58.58,0,0,0,.23.33.72.72,0,0,0,.44.13,3.31,3.31,0,0,0,1.05-.25l.22,2a5.15,5.15,0,0,1-2.06.39,3.15,3.15,0,0,1-1.26-.24,1.82,1.82,0,0,1-.83-.61,2.44,2.44,0,0,1-.37-1,13.79,13.79,0,0,1-.08-1.84v-4.32h-1.2v-2.08h1.2v-2l2.6-1.54v3.5Zm-9.79,9.87v-9.87h2.61v9.87Zm0-11.2v-2.42h2.61v2.42Zm-13,11.2-3.12-9.87h2.54l1.85,6.47,1.7-6.47h2.52l1.63,6.47,1.89-6.47h2.57l-3.17,9.87h-2.5l-1.7-6.35-1.67,6.35Zm-12.12-5,2.67.82a6.05,6.05,0,0,1-2,3.34,5.79,5.79,0,0,1-3.62,1.09,5.87,5.87,0,0,1-4.46-1.85,7.1,7.1,0,0,1-1.75-5.08,7.47,7.47,0,0,1,1.76-5.28,6,6,0,0,1,4.61-1.88,5.64,5.64,0,0,1,4.06,1.48,5.29,5.29,0,0,1,1.4,2.51l-2.72.65a2.81,2.81,0,0,0-2.87-2.28,3.11,3.11,0,0,0-2.46,1.08,5.33,5.33,0,0,0-.95,3.52,5.71,5.71,0,0,0,.93,3.68,3,3,0,0,0,2.42,1.09,2.79,2.79,0,0,0,1.89-.69A4,4,0,0,0,409.05,112.52Zm-15.21-.38-1.9-5-1.84,5Zm5,5.4h-3l-1.18-3.1h-5.46l-1.13,3.1h-2.92l5.29-13.62h2.91Zm-18.78-5.4-1.89-5-1.84,5Zm5,5.4h-3l-1.18-3.1h-5.46l-1.13,3.1h-2.92l5.29-13.62h2.91Zm-26,0V103.92h2.67l5.6,9.13v-9.13H370v13.62H367.2l-5.52-9v9ZM342,107.67h2.77l2.37,7,2.31-7h2.71l-3.49,9.5-.62,1.72a6.83,6.83,0,0,1-.66,1.31,2.78,2.78,0,0,1-1.72,1.18,5.41,5.41,0,0,1-1.34.16,7.37,7.37,0,0,1-1.48-.16l-.22-2a5.93,5.93,0,0,0,1.11.13,1.66,1.66,0,0,0,1.35-.54,3.9,3.9,0,0,0,.67-1.37Zm-7.91,4.75a4.24,4.24,0,0,0,.48,2.27,2.08,2.08,0,0,0,1.81,1,1.83,1.83,0,0,0,1.47-.75,3.61,3.61,0,0,0,.61-2.33,3.88,3.88,0,0,0-.61-2.45,1.94,1.94,0,0,0-1.57-.75,2,2,0,0,0-1.57.73A3.41,3.41,0,0,0,334.09,112.42Zm-2.57,5.12V103.92h2.61v4.92a3.67,3.67,0,0,1,2.86-1.38,3.85,3.85,0,0,1,3,1.31,5.44,5.44,0,0,1,1.18,3.75,5.68,5.68,0,0,1-1.21,3.9,3.75,3.75,0,0,1-2.92,1.37,3.55,3.55,0,0,1-1.67-.43,4,4,0,0,1-1.41-1.27v1.45Zm-14.7-5.12a4.55,4.55,0,0,0,.44,2.29,2,2,0,0,0,1.76,1,1.92,1.92,0,0,0,1.53-.77,3.58,3.58,0,0,0,.63-2.3,3.89,3.89,0,0,0-.61-2.46,1.94,1.94,0,0,0-1.57-.75,2,2,0,0,0-1.55.74A3.36,3.36,0,0,0,316.82,112.42Zm7,5.12h-2.42v-1.45a4,4,0,0,1-1.43,1.28,3.62,3.62,0,0,1-1.66.42,3.78,3.78,0,0,1-2.92-1.37,6.7,6.7,0,0,1,0-7.65,3.87,3.87,0,0,1,3-1.31,3.69,3.69,0,0,1,2.87,1.38v-4.92h2.61ZM310,111.78a2.55,2.55,0,0,0-.58-1.73,1.8,1.8,0,0,0-1.35-.59,1.82,1.82,0,0,0-1.41.62,2.48,2.48,0,0,0-.55,1.7Zm-.15,2.64,2.61.44a4.3,4.3,0,0,1-1.59,2.18,4.62,4.62,0,0,1-2.7.75,4.41,4.41,0,0,1-3.81-1.68,5.69,5.69,0,0,1-1-3.41,5.49,5.49,0,0,1,1.28-3.85,4.26,4.26,0,0,1,3.24-1.39,4.37,4.37,0,0,1,3.47,1.46,6.41,6.41,0,0,1,1.22,4.46h-6.53a2.65,2.65,0,0,0,.64,1.81,1.94,1.94,0,0,0,1.49.64,1.61,1.61,0,0,0,1-.33A2,2,0,0,0,309.86,114.42Zm-7.53-6.75v2.08h-1.79v4a10.89,10.89,0,0,0,0,1.42.59.59,0,0,0,.24.33.7.7,0,0,0,.44.13,3.31,3.31,0,0,0,1.05-.25l.22,2a5.18,5.18,0,0,1-2.06.39,3.23,3.23,0,0,1-1.27-.24,1.88,1.88,0,0,1-.83-.61,2.59,2.59,0,0,1-.36-1,11.77,11.77,0,0,1-.09-1.84v-4.32h-1.19v-2.08h1.19v-2l2.61-1.54v3.5Zm-9.8,9.87v-9.87h2.61v9.87Zm0-11.2v-2.42h2.61v2.42ZM283,112.42a4.57,4.57,0,0,0,.43,2.29,2,2,0,0,0,1.77,1,1.89,1.89,0,0,0,1.52-.77,3.52,3.52,0,0,0,.64-2.3,3.89,3.89,0,0,0-.62-2.46,1.93,1.93,0,0,0-1.56-.75,2,2,0,0,0-1.56.74A3.42,3.42,0,0,0,283,112.42Zm7,5.12h-2.42v-1.45a4.09,4.09,0,0,1-1.42,1.28,3.66,3.66,0,0,1-1.67.42,3.79,3.79,0,0,1-2.92-1.37,5.59,5.59,0,0,1-1.21-3.83,5.5,5.5,0,0,1,1.18-3.82,3.86,3.86,0,0,1,3-1.31,3.72,3.72,0,0,1,2.87,1.38v-4.92H290Zm-13.77-5.76a2.55,2.55,0,0,0-.59-1.73,1.8,1.8,0,0,0-1.35-.59,1.82,1.82,0,0,0-1.41.62,2.43,2.43,0,0,0-.54,1.7Zm-.16,2.64,2.61.44a4.23,4.23,0,0,1-1.58,2.18,4.65,4.65,0,0,1-2.71.75,4.42,4.42,0,0,1-3.81-1.68,5.68,5.68,0,0,1-1-3.41,5.49,5.49,0,0,1,1.28-3.85,4.23,4.23,0,0,1,3.24-1.39,4.39,4.39,0,0,1,3.47,1.46,6.41,6.41,0,0,1,1.21,4.46h-6.52a2.69,2.69,0,0,0,.63,1.81,2,2,0,0,0,1.5.64,1.56,1.56,0,0,0,1-.33A2,2,0,0,0,276,114.42Zm-10.61,3.12h-2.61v-9.87h2.42v1.4a4.13,4.13,0,0,1,1.12-1.3,2.06,2.06,0,0,1,1.13-.31,3.38,3.38,0,0,1,1.72.49l-.81,2.28a2.34,2.34,0,0,0-1.22-.43,1.44,1.44,0,0,0-.93.3,2,2,0,0,0-.6,1.09,15.21,15.21,0,0,0-.22,3.31ZM261,110.6l-2.56.46a1.93,1.93,0,0,0-.59-1.16,1.84,1.84,0,0,0-1.19-.38,2,2,0,0,0-1.56.67,3.45,3.45,0,0,0-.58,2.26,4,4,0,0,0,.59,2.48,1.91,1.91,0,0,0,1.58.73,1.75,1.75,0,0,0,1.21-.42,2.55,2.55,0,0,0,.67-1.46l2.57.43a4.62,4.62,0,0,1-1.53,2.68,4.76,4.76,0,0,1-3,.9,4.53,4.53,0,0,1-3.45-1.37,6.25,6.25,0,0,1,0-7.59,4.57,4.57,0,0,1,3.49-1.37,4.73,4.73,0,0,1,2.86.78A4.28,4.28,0,0,1,261,110.6Zm-10.57,0-2.57.46a1.87,1.87,0,0,0-.59-1.16,1.84,1.84,0,0,0-1.19-.38,2,2,0,0,0-1.56.67,3.45,3.45,0,0,0-.58,2.26,4,4,0,0,0,.59,2.48,1.91,1.91,0,0,0,1.58.73,1.75,1.75,0,0,0,1.21-.42,2.55,2.55,0,0,0,.67-1.46l2.57.43a4.62,4.62,0,0,1-1.53,2.68,4.76,4.76,0,0,1-3,.9,4.53,4.53,0,0,1-3.45-1.37,6.25,6.25,0,0,1,0-7.59,4.57,4.57,0,0,1,3.49-1.37,4.73,4.73,0,0,1,2.86.78A4.35,4.35,0,0,1,250.38,110.6Zm-15.09,1.54-1.89-5-1.84,5Zm5,5.4h-3l-1.18-3.1h-5.46l-1.13,3.1h-2.92L232,103.92h2.91Z"/><text class="cls-5" transform="translate(292.42 91.74) scale(1.03 1)">Deemed to be University</text><path class="cls-6" d="M1.48,76.12,5.63,75c-.26-1.52-.46-3.07-.61-4.63H.74Q.5,67.65.5,64.86t.24-5.52H5c.15-1.57.35-3.11.61-4.64L1.48,53.59A63.4,63.4,0,0,1,4.34,42.93L8.48,44q.81-2.19,1.79-4.31L6.56,37.57A64.14,64.14,0,0,1,12.09,28l3.71,2.14c.9-1.27,1.85-2.51,2.85-3.7l-3-3a64,64,0,0,1,7.81-7.81l3,3c1.19-1,2.43-1.95,3.7-2.85L28,12.09a63.74,63.74,0,0,1,9.56-5.53l2.14,3.71q2.12-1,4.31-1.79l-1.1-4.14A63.14,63.14,0,0,1,53.59,1.48L54.7,5.63c1.53-.26,3.07-.46,4.64-.61V.74Q62.07.5,64.86.5t5.52.24V5c1.56.15,3.11.35,4.63.61l1.11-4.14A62.55,62.55,0,0,1,86.79,4.34L85.68,8.48q2.2.81,4.32,1.79l2.14-3.71a64.76,64.76,0,0,1,9.56,5.53L99.56,15.8q1.91,1.35,3.7,2.85l3-3a64.73,64.73,0,0,1,7.81,7.81l-3,3c1,1.19,1.94,2.43,2.85,3.7l3.7-2.14a62.9,62.9,0,0,1,5.53,9.56l-3.71,2.14q1,2.12,1.8,4.31l4.14-1.1a64.08,64.08,0,0,1,2.85,10.66l-4.14,1.11c.26,1.53.46,3.07.6,4.64H129c.15,1.82.24,3.66.24,5.52s-.09,3.7-.24,5.52h-4.29c-.14,1.56-.34,3.11-.6,4.63l4.14,1.11a64.45,64.45,0,0,1-2.85,10.67l-4.14-1.11q-.83,2.2-1.8,4.32l3.72,2.14a64.81,64.81,0,0,1-5.54,9.56l-3.7-2.14q-1.36,1.91-2.85,3.7l3,3a65.47,65.47,0,0,1-7.81,7.81l-3-3q-1.8,1.49-3.7,2.85l2.14,3.7a63.88,63.88,0,0,1-9.56,5.53L90,119.44q-2.11,1-4.32,1.8l1.11,4.14a64.19,64.19,0,0,1-10.67,2.85L75,124.09c-1.52.26-3.07.46-4.63.6V129c-1.82.15-3.66.24-5.52.24s-3.7-.09-5.52-.24v-4.29c-1.57-.14-3.11-.34-4.64-.6l-1.11,4.14a64.08,64.08,0,0,1-10.66-2.85l1.1-4.14c-1.46-.55-2.9-1.14-4.31-1.8l-2.14,3.72A64.62,64.62,0,0,1,28,117.63l2.14-3.71q-1.9-1.36-3.71-2.85l-3,3a64.73,64.73,0,0,1-7.81-7.81l3-3q-1.5-1.8-2.85-3.7l-3.71,2.14a64.76,64.76,0,0,1-5.53-9.56L10.27,90q-1-2.11-1.79-4.32L4.34,86.79A63.25,63.25,0,0,1,1.48,76.12Z"/><path class="cls-7" d="M1.48,76.12,5.63,75c-.26-1.52-.46-3.07-.61-4.63H.74Q.5,67.65.5,64.86t.24-5.52H5c.15-1.57.35-3.11.61-4.64L1.48,53.59A63.4,63.4,0,0,1,4.34,42.93L8.48,44q.81-2.19,1.79-4.31L6.56,37.57A64.14,64.14,0,0,1,12.09,28l3.71,2.14c.9-1.27,1.85-2.51,2.85-3.7l-3-3a64,64,0,0,1,7.81-7.81l3,3c1.19-1,2.43-1.95,3.7-2.85L28,12.09a63.74,63.74,0,0,1,9.56-5.53l2.14,3.71q2.12-1,4.31-1.79l-1.1-4.14A63.14,63.14,0,0,1,53.59,1.48L54.7,5.63c1.53-.26,3.07-.46,4.64-.61V.74Q62.07.5,64.86.5t5.52.24V5c1.56.15,3.11.35,4.63.61l1.11-4.14A62.55,62.55,0,0,1,86.79,4.34L85.68,8.48q2.2.81,4.32,1.79l2.14-3.71a64.76,64.76,0,0,1,9.56,5.53L99.56,15.8q1.91,1.35,3.7,2.85l3-3a64.73,64.73,0,0,1,7.81,7.81l-3,3c1,1.19,1.94,2.43,2.85,3.7l3.7-2.14a62.9,62.9,0,0,1,5.53,9.56l-3.71,2.14q1,2.12,1.8,4.31l4.14-1.1a64.08,64.08,0,0,1,2.85,10.66l-4.14,1.11c.26,1.53.46,3.07.6,4.64H129c.15,1.82.24,3.66.24,5.52s-.09,3.7-.24,5.52h-4.29c-.14,1.56-.34,3.11-.6,4.63l4.14,1.11a64.45,64.45,0,0,1-2.85,10.67l-4.14-1.11q-.83,2.2-1.8,4.32l3.72,2.14a64.81,64.81,0,0,1-5.54,9.56l-3.7-2.14q-1.36,1.91-2.85,3.7l3,3a65.47,65.47,0,0,1-7.81,7.81l-3-3q-1.8,1.49-3.7,2.85l2.14,3.7a63.88,63.88,0,0,1-9.56,5.53L90,119.44q-2.11,1-4.32,1.8l1.11,4.14a64.19,64.19,0,0,1-10.67,2.85L75,124.09c-1.52.26-3.07.46-4.63.6V129c-1.82.15-3.66.24-5.52.24s-3.7-.09-5.52-.24v-4.29c-1.57-.14-3.11-.34-4.64-.6l-1.11,4.14a64.08,64.08,0,0,1-10.66-2.85l1.1-4.14c-1.46-.55-2.9-1.14-4.31-1.8l-2.14,3.72A64.62,64.62,0,0,1,28,117.63l2.14-3.71q-1.9-1.36-3.71-2.85l-3,3a64.73,64.73,0,0,1-7.81-7.81l3-3q-1.5-1.8-2.85-3.7l-3.71,2.14a64.76,64.76,0,0,1-5.53-9.56L10.27,90q-1-2.11-1.79-4.32L4.34,86.79A63.25,63.25,0,0,1,1.48,76.12Z"/><path class="cls-8" d="M1.48,76.12,5.63,75c-.26-1.52-.46-3.07-.61-4.63H.74Q.5,67.65.5,64.86c0-1.36.05-2.71.13-4l.71-.7,5.5.39H122.06l6.4-.58.63.9c.08,1.33.13,2.68.13,4,0,1.86-.09,3.7-.24,5.52h-4.29c-.14,1.56-.34,3.11-.6,4.63l4.14,1.11a64.19,64.19,0,0,1-2.85,10.67l-4.14-1.11q-.83,2.2-1.8,4.32l3.72,2.14a64.81,64.81,0,0,1-5.54,9.56l-3.7-2.14q-1.36,1.91-2.85,3.7l3,3a65.47,65.47,0,0,1-7.81,7.81l-3-3q-1.8,1.49-3.7,2.84l2.14,3.71a63.88,63.88,0,0,1-9.56,5.53L90,119.44q-2.11,1-4.32,1.8l1.11,4.14a64.19,64.19,0,0,1-10.67,2.85L75,124.09c-1.52.26-3.07.46-4.63.6V129c-1.82.15-3.66.24-5.52.24s-3.7-.09-5.52-.24v-4.29c-1.57-.14-3.11-.34-4.64-.6l-1.11,4.14a64.08,64.08,0,0,1-10.66-2.85l1.1-4.14q-2.19-.83-4.31-1.8l-2.14,3.72A63.8,63.8,0,0,1,28,117.62l2.14-3.7q-1.9-1.36-3.71-2.85l-3,3a64.73,64.73,0,0,1-7.81-7.81l3-3q-1.5-1.8-2.85-3.7l-3.71,2.14a64.76,64.76,0,0,1-5.53-9.56L10.27,90q-1-2.11-1.79-4.32L4.34,86.79A63.25,63.25,0,0,1,1.48,76.12Z"/><path class="cls-9" d="M1.48,76.12,5.63,75c-.26-1.52-.46-3.07-.61-4.63H.74Q.5,67.65.5,64.86c0-1.36.05-2.71.13-4l.71-.7,5.5.39H122.06l6.4-.58.63.9c.08,1.33.13,2.68.13,4,0,1.86-.09,3.7-.24,5.52h-4.29c-.14,1.56-.34,3.11-.6,4.63l4.14,1.11a64.19,64.19,0,0,1-2.85,10.67l-4.14-1.11q-.83,2.2-1.8,4.32l3.72,2.14a64.81,64.81,0,0,1-5.54,9.56l-3.7-2.14q-1.36,1.91-2.85,3.7l3,3a65.47,65.47,0,0,1-7.81,7.81l-3-3q-1.8,1.49-3.7,2.84l2.14,3.71a63.88,63.88,0,0,1-9.56,5.53L90,119.44q-2.11,1-4.32,1.8l1.11,4.14a64.19,64.19,0,0,1-10.67,2.85L75,124.09c-1.52.26-3.07.46-4.63.6V129c-1.82.15-3.66.24-5.52.24s-3.7-.09-5.52-.24v-4.29c-1.57-.14-3.11-.34-4.64-.6l-1.11,4.14a64.08,64.08,0,0,1-10.66-2.85l1.1-4.14q-2.19-.83-4.31-1.8l-2.14,3.72A63.8,63.8,0,0,1,28,117.62l2.14-3.7q-1.9-1.36-3.71-2.85l-3,3a64.73,64.73,0,0,1-7.81-7.81l3-3q-1.5-1.8-2.85-3.7l-3.71,2.14a64.76,64.76,0,0,1-5.53-9.56L10.27,90q-1-2.11-1.79-4.32L4.34,86.79A63.25,63.25,0,0,1,1.48,76.12Z"/><path class="cls-6" d="M64.86,6.2a58.67,58.67,0,0,1,58.51,54.57h-16a42.7,42.7,0,0,0-85,0h-16A58.67,58.67,0,0,1,64.86,6.2"/><circle class="cls-10" cx="64.86" cy="64.86" r="43.06" transform="translate(-6.08 6.71) rotate(-5.65)"/><circle class="cls-7" cx="64.86" cy="64.86" r="43.06" transform="translate(-6.08 6.71) rotate(-5.65)"/><path class="cls-4" d="M66.17,24c-2,14.39-39.3,21.8-34.35,50.7A14.47,14.47,0,0,0,35,81.39C42.47,91.08,50.55,94,64.87,97.07c38.84-6.9,39.39-35.09,24.28-38-9.88-1.14-18.43.6-25,6.57C78.28,55.84,94.75,62.18,88.53,77c-2.6,5.44-13.82,13-23.61,15C42.11,86.8,29.69,70.46,47.51,51.1,61.43,37.94,66.41,31.51,66.17,24"/><path class="cls-11" d="M65.35,34.28c-7.18,15.26-31.86,22.95-22.9,42.24C48,84.24,56,88.38,64.82,90.63,99.21,80.11,90.38,56.09,72.12,63c15.17-1.83,15.58,16.12-7.36,23.39C50.54,83.16,43.2,74.7,47.71,63.21c4.65-11.7,14.43-14.36,17.64-28.93"/><path class="cls-11" d="M47.51,69.16c6-10.23,23.72-8.57,18.46-35.08C66.43,55.76,47.87,58,47.51,69.16"/><rect class="cls-2" x="57.24" y="98.46" width="14.86" height="3.08"/><rect class="cls-2" x="59.44" y="102.61" width="10.46" height="3.08"/><path class="cls-11" d="M67.11,30.44c6,10.79,7.36,21.24-5.3,30.74,7.75-9.91,8.81-20.19,5.3-30.74"/><path class="cls-3" d="M115.3,54.53l-2,.5L113,53.94l2-.5L118.19,51l.3,1.19-2.16,1.56,2.64.36.29,1.19ZM118.15,51l-1,.28-.29-1-4.55,1.31-.3-1.08,4.54-1.3-.3-1,1-.28Zm-7-3.17,5.42-1.87L117,47l-5.42,1.87Zm-.18-.63-1.09-2.69,5.31-2.15.42,1-4.38,1.77.67,1.67Zm-1.87-6.82-1.27.17-.55-1,6.11-.73.46.85-4,4.63-.56-1.06.85-1Zm1.76,1,1.31-1.46-2,.25Zm-3.67-2-1.68-2.6,4.81-3.12,1.68,2.6-.84.55-1.08-1.67-1.1.71,1.08,1.67-.83.54-1.08-1.67-1.19.78,1.08,1.66Zm-3.83-5.3-.71-.87,4.46-3.61.86,1.06a6.51,6.51,0,0,1,.57.78,2.25,2.25,0,0,1,.23.51,1.66,1.66,0,0,1-.62,1.78,1.77,1.77,0,0,1-1.1.43,1.63,1.63,0,0,1-1.09-.41l-.82,2.52-.85-1,1.14-2.83Zm2.29-1.86.16.2a1.78,1.78,0,0,0,.84.65.82.82,0,0,0,.78-.18.77.77,0,0,0,.33-.66,1.52,1.52,0,0,0-.41-.85l-.26-.32Zm-7.28-7.55a3.38,3.38,0,0,1,.7-.56,2.92,2.92,0,0,1,2.24-.29,3,3,0,0,1,1.25.71,2.84,2.84,0,0,1,.66.91,3,3,0,0,1,.26,1.11,3.15,3.15,0,0,1-.18,1.15,2.88,2.88,0,0,1-.61,1,3,3,0,0,1-.94.7,2.59,2.59,0,0,1-1.1.27,2.84,2.84,0,0,1-1.16-.16,2.93,2.93,0,0,1-1-.61,2.89,2.89,0,0,1-.71-1,2.71,2.71,0,0,1-.24-1.14,3.05,3.05,0,0,1,.21-1.12A3.26,3.26,0,0,1,98.39,24.65Zm.89.78a1.8,1.8,0,0,0-.38.59,1.86,1.86,0,0,0-.14.67,2,2,0,0,0,.14.73,1.51,1.51,0,0,0,.4.59,1.69,1.69,0,0,0,1.29.47,1.85,1.85,0,0,0,1.28-.63,1.76,1.76,0,0,0,.48-1.27,1.71,1.71,0,0,0-.55-1.22,1.79,1.79,0,0,0-1.29-.49A1.65,1.65,0,0,0,99.28,25.43Zm.4-3.31-.62.8-.85-.67L95.3,26l-.88-.69,2.91-3.73-.85-.66.62-.79Zm-9.42.41-.93-.59,3-4.86.9.56L93.34,22l1.94-3.11.93.58-3,4.86-.88-.55,0-4.46Zm-2.83-1.59L90,15.83l1,.51-2.6,5.11Zm-5.32-4.25,1,.36,0,.08a.81.81,0,0,0,0,.61.59.59,0,0,0,.39.38.68.68,0,0,0,.95-.44c.14-.34,0-.68-.45-1l-.14-.11a2.09,2.09,0,0,1-.71-.91,1.45,1.45,0,0,1,0-1,1.83,1.83,0,0,1,.88-1,1.5,1.5,0,0,1,1.28,0,1.46,1.46,0,0,1,.88.8,1.84,1.84,0,0,1,0,1.31l-1-.37,0,0a.66.66,0,0,0,0-.48.63.63,0,0,0-.81-.3.68.68,0,0,0-.32.38,1,1,0,0,0,0,.22.45.45,0,0,0,0,.2,1.53,1.53,0,0,0,.53.56l.3.23a1.74,1.74,0,0,1,.61.84,1.6,1.6,0,0,1-.08,1,2,2,0,0,1-1,1.15,1.67,1.67,0,0,1-1.42,0,1.6,1.6,0,0,1-1-.93A2,2,0,0,1,82.11,16.69Zm-5.81.09-1.07-.29L76.71,11l1.43.39.33,4.4L81,12.09l1.44.39L80.9,18l-1.06-.28,1.11-4-2.48,3.64-.81-.22-.33-4.39Zm-4.94-2.09-.59,1.14-1.16-.14,2.91-5.42,1,.12L75,16.34l-1.19-.14L73.47,15Zm1.87-.84-.45-1.92-.91,1.75Zm-3.71,1.8-3.08-.22.4-5.72,3.08.22-.07,1-2-.14-.09,1.3,2,.14-.07,1-2-.14-.1,1.42,2,.13ZM63,15.53l-1.12,0-.1-5.73,1.36,0a6.47,6.47,0,0,1,1,0,1.94,1.94,0,0,1,.54.13,1.76,1.76,0,0,1,.76.63,1.68,1.68,0,0,1,.27.95,1.74,1.74,0,0,1-.35,1.14,1.59,1.59,0,0,1-1,.6l1.47,2.2-1.34,0-1.52-2.64Zm0-2.94h.25a1.74,1.74,0,0,0,1-.26.84.84,0,0,0,.34-.72.79.79,0,0,0-.31-.67,1.55,1.55,0,0,0-.92-.2h-.42Zm-4.66,3.32-1.94.24-.69-5.69,1.9-.24a4,4,0,0,1,1.26,0,2.15,2.15,0,0,1,.91.42,2.55,2.55,0,0,1,.72.87,3.48,3.48,0,0,1,.36,1.22,3.16,3.16,0,0,1-.12,1.42A2.62,2.62,0,0,1,60,15.27a2.06,2.06,0,0,1-.66.42A4.77,4.77,0,0,1,58.26,15.91Zm-.19-1a1.81,1.81,0,0,0,1.31-.62,2,2,0,0,0,.26-1.47A1.9,1.9,0,0,0,59,11.53a1.79,1.79,0,0,0-1.4-.33l-.72.09L57.33,15Zm-5.55-1.08,0,.09,0,.09a3.55,3.55,0,0,1,.11.68,2.6,2.6,0,0,1,0,.63,3,3,0,0,1-.75,1.49,2.87,2.87,0,0,1-1.41.83,2.68,2.68,0,0,1-1.22.07,2.88,2.88,0,0,1-1.15-.45,2.79,2.79,0,0,1-.78-.75,3,3,0,0,1-.47-1,2.68,2.68,0,0,1-.07-1.16,3,3,0,0,1,.4-1.12,2.93,2.93,0,0,1,.75-.85A3.19,3.19,0,0,1,49,11.9a2.76,2.76,0,0,1,1.66,0,2.87,2.87,0,0,1,1.34,1l-1.31.35A1.57,1.57,0,0,0,50,13a1.86,1.86,0,0,0-.77,0,1.61,1.61,0,0,0-1.06.83A1.75,1.75,0,0,0,48,15.24a1.79,1.79,0,0,0,.83,1.13,1.73,1.73,0,0,0,1.37.18,1.67,1.67,0,0,0,.85-.52,1.77,1.77,0,0,0,.41-.9l-2.18.58-.25-.93Zm-8.61,6.3-1,.45-2.33-5.24,1-.43,3.65,2.38L43.71,14l1-.44,2.33,5.23-.95.43-3.72-2.48Zm-2.85,1.39-2.6-5.11,1-.51L42.06,21Zm-4.87,3-.94.59-3-4.87,1.26-.78,3.45,2.76-1-4.3,1.26-.79,3,4.86-.93.59-2.18-3.55,1,4.29-.72.45L34,21.05Zm-3.58,2.87-.86.72-3.68-4.39,1-.87a7,7,0,0,1,.77-.59,1.88,1.88,0,0,1,.51-.23,1.63,1.63,0,0,1,1,0,1.94,1.94,0,0,1,1.26,1.67,1.64,1.64,0,0,1-.39,1.09l2.53.78-1,.86L30.9,25.39Zm-1.89-2.25.19-.16a1.76,1.76,0,0,0,.63-.85.92.92,0,0,0-.85-1.11,1.6,1.6,0,0,0-.84.43l-.32.27ZM25.06,30.9a3,3,0,0,1-.55-.71,2.72,2.72,0,0,1-.31-.82,2.88,2.88,0,0,1,.06-1.43A2.92,2.92,0,0,1,25,26.7a2.82,2.82,0,0,1,.92-.64A3,3,0,0,1,27,25.82a2.94,2.94,0,0,1,2.12.82,3.26,3.26,0,0,1,.68.95,2.82,2.82,0,0,1,.26,1.11,2.68,2.68,0,0,1-.19,1.16,2.79,2.79,0,0,1-.63,1,2.83,2.83,0,0,1-1,.69,2.62,2.62,0,0,1-1.15.22A2.79,2.79,0,0,1,26,31.53,3,3,0,0,1,25.06,30.9Zm.79-.88a1.8,1.8,0,0,0,.58.39,1.87,1.87,0,0,0,.67.15,1.83,1.83,0,0,0,.74-.13,1.54,1.54,0,0,0,.59-.38,1.69,1.69,0,0,0,.49-1.29,1.86,1.86,0,0,0-.6-1.29,1.77,1.77,0,0,0-1.26-.5,1.66,1.66,0,0,0-1.23.53,1.77,1.77,0,0,0-.52,1.28A1.71,1.71,0,0,0,25.85,30Zm-.92,5.73-4.46-3.61,2-2.4.79.63L22,31.92l1,.82,1.25-1.55.77.63-1.25,1.54,1.89,1.53Zm-3.81,2.52.55-.86.07,0a.86.86,0,0,0,.59.16.65.65,0,0,0,.46-.3.74.74,0,0,0,.12-.56.76.76,0,0,0-.35-.47c-.31-.2-.68-.12-1.1.24a.81.81,0,0,0-.13.11,2.11,2.11,0,0,1-1,.5,1.48,1.48,0,0,1-1-.25,1.88,1.88,0,0,1-.84-1.08,1.55,1.55,0,0,1,.24-1.27,1.42,1.42,0,0,1,1-.69,1.87,1.87,0,0,1,1.27.27l-.56.86,0,0a.63.63,0,0,0-.47-.1.63.63,0,0,0-.47.73.72.72,0,0,0,.31.39,1,1,0,0,0,.21.09.44.44,0,0,0,.2,0,1.56,1.56,0,0,0,.65-.4,3.73,3.73,0,0,1,.29-.25A1.76,1.76,0,0,1,22,35a1.55,1.55,0,0,1,.95.29,2,2,0,0,1,.93,1.18,1.71,1.71,0,0,1-.26,1.39,1.58,1.58,0,0,1-1.12.76A2,2,0,0,1,21.12,38.27Zm-.51,4.52-.52,1L15,41.07l.5-.94,4.35-.37L16.64,38l.52-1,5.06,2.69-.49.92L17.28,41ZM17.46,47l.94.86L18,49l-4.48-4.21.36-.9L20,44l-.45,1.12-1.29,0Zm-.33-2-2-.06,1.46,1.33Zm.11,6.59-.31,1.08L11.42,51.1l.38-1.31a6.77,6.77,0,0,1,.31-.92,1.75,1.75,0,0,1,1.11-1,1.76,1.76,0,0,1,1,0,1.73,1.73,0,0,1,1,.66,1.6,1.6,0,0,1,.29,1.12L18,48.89l-.37,1.29-3,.68Zm-2.83-.81.07-.24a1.87,1.87,0,0,0,0-1.06.82.82,0,0,0-.6-.54.8.8,0,0,0-.73.1,1.61,1.61,0,0,0-.46.82l-.11.4Zm-3.17,1.12,1,.23-.25,1,4.61,1.06-.25,1.09-4.61-1.06-.24,1-1-.23Z"/><path class="cls-10" d="M110.44,92.45l-3.29-.88,2.25,2.57Zm2,.53-1.68,2.7,1,1.18-1.51,2.43-5.91-7.69L106,89l9.51,1.9-1.55,2.49Zm-11.84,8.88.82-.85a4.38,4.38,0,0,0,.43-.62.76.76,0,0,0,.11-.53.84.84,0,0,0-.26-.49.8.8,0,0,0-.68-.27,1.64,1.64,0,0,0-.9.59l-.85.89Zm1.93,5.77L96,101.33,99.22,98a6.37,6.37,0,0,1,1.54-1.28,2.13,2.13,0,0,1,1.36-.23,2.56,2.56,0,0,1,1.36.72,2.51,2.51,0,0,1,.71,1.14,2.44,2.44,0,0,1,0,1.26,3.41,3.41,0,0,1-.42,1,2.47,2.47,0,0,1,.74-.3,2.94,2.94,0,0,1,.66,0,3.15,3.15,0,0,1,.67.11l2.84.84-2.2,2.28-3-.84a2.23,2.23,0,0,0-.86-.12,1.24,1.24,0,0,0-.63.35l-.17.18,2.65,2.55ZM88,106.75l6.29-4.1,1.06,1.62-3.93,2.56.79,1.21,3.64-2.37,1,1.55-3.64,2.37,1,1.5,4-2.64,1.12,1.72L93,114.35Zm-5.65,8.42,2.57.06a4.57,4.57,0,0,1-.29,1.87,3.31,3.31,0,0,1-1,1.36,4.93,4.93,0,0,1-1.84.88,5.9,5.9,0,0,1-2.45.23,3.84,3.84,0,0,1-2-1,5.18,5.18,0,0,1-1.4-2.49,4.72,4.72,0,0,1,.23-3.65A5.49,5.49,0,0,1,82,110.28,4.05,4.05,0,0,1,84,112l-2.24,1.19a2,2,0,0,0-.42-.51,1.56,1.56,0,0,0-.69-.32,1.73,1.73,0,0,0-.78,0,1.65,1.65,0,0,0-1.21,1.13,3.27,3.27,0,0,0,.11,1.82,3.43,3.43,0,0,0,1,1.87,1.59,1.59,0,0,0,1.39.2,1.55,1.55,0,0,0,1-.77A2.74,2.74,0,0,0,82.39,115.17Zm-13.07-2.69,2.79-.33,1.06,9-2.8.32ZM58,112.29l2.8.21-.24,3.16,3.06.23.24-3.15,2.8.21-.69,9-2.8-.22.28-3.66-3.06-.23-.28,3.66-2.79-.21Zm-8,2.13.67.18a1.74,1.74,0,0,0,1.18,0,.88.88,0,0,0,.5-.61,1,1,0,0,0-.09-.78,1.54,1.54,0,0,0-1-.56l-.78-.2ZM48.24,110l4.51,1.18a3.21,3.21,0,0,1,2,1.27A2.7,2.7,0,0,1,55,114.6a2.82,2.82,0,0,1-1.34,1.88,3.57,3.57,0,0,1-2.64.11l-1.49-.39-.85,3.25L46,118.74Zm-7.41,2.66.57-3.36-2.35,2.47Zm-.35,2-2.84-1.42-1.08,1.13L34,113.07l7.12-6.59,2.75,1.38-1,9.64-2.62-1.32Zm-9.55-11,.88.79a4.2,4.2,0,0,0,.64.4.7.7,0,0,0,.53.09.85.85,0,0,0,.48-.28.79.79,0,0,0,.24-.69,1.66,1.66,0,0,0-.62-.87l-.92-.82Zm-5.69,2.15,6-6.78,3.49,3.12a6.56,6.56,0,0,1,1.33,1.48,2.14,2.14,0,0,1,.28,1.36,2.48,2.48,0,0,1-.67,1.38,2.44,2.44,0,0,1-1.11.76,2.51,2.51,0,0,1-1.25.07,3.3,3.3,0,0,1-1-.39,2.36,2.36,0,0,1,.32.74,2.42,2.42,0,0,1,0,.65,3.81,3.81,0,0,1-.08.68l-.73,2.87-2.37-2.11.73-3.06a2.28,2.28,0,0,0,.09-.86,1.22,1.22,0,0,0-.38-.62l-.18-.16-2.45,2.74Zm-3-8.45,1.47-1.19,2.72,3.38-3,2.42a9.18,9.18,0,0,1-2.28-1,7.57,7.57,0,0,1-1.66-1.58A5.47,5.47,0,0,1,18.23,97a3.75,3.75,0,0,1,.28-2.25,5.4,5.4,0,0,1,1.6-2,5.2,5.2,0,0,1,2.4-1.14,3.94,3.94,0,0,1,2.42.35,5.81,5.81,0,0,1,1.9,1.66A6.94,6.94,0,0,1,28,95.51,2.82,2.82,0,0,1,28.14,97a3.76,3.76,0,0,1-.66,1.49l-2.07-1.8a1.55,1.55,0,0,0,.26-.94,2,2,0,0,0-1.85-1.7,3.05,3.05,0,0,0-1.92.84,3.24,3.24,0,0,0-1.29,1.75,1.92,1.92,0,0,0,.48,1.6,2.73,2.73,0,0,0,.66.61,4.88,4.88,0,0,0,1,.47l.67-.53Z"/><text class="cls-12" transform="translate(221.14 138.71)">Approved by </text><text class="cls-12" transform="translate(303 138.71)">AICTE, Ministry of HRD, Govt. of India</text></g></g></svg>